<?xml version="1.0" encoding="UTF-8" standalone="no"?>
<!-- Created with Inkscape (http://www.inkscape.org/) -->

<svg
   width="3840"
   height="1080"
   viewBox="0 0 1016 285.75"
   version="1.1"
   id="svg1"
   inkscape:version="1.3.2 (091e20ef0f, 2023-11-25, custom)"
   sodipodi:docname="lockscreen.svg"
   xml:space="preserve"
   inkscape:export-filename="lockscreen.png"
   inkscape:export-xdpi="96"
   inkscape:export-ydpi="96"
   xmlns:inkscape="http://www.inkscape.org/namespaces/inkscape"
   xmlns:sodipodi="http://sodipodi.sourceforge.net/DTD/sodipodi-0.dtd"
   xmlns="http://www.w3.org/2000/svg"
   xmlns:svg="http://www.w3.org/2000/svg"><sodipodi:namedview
     id="namedview1"
     pagecolor="#505050"
     bordercolor="#eeeeee"
     borderopacity="1"
     inkscape:showpageshadow="0"
     inkscape:pageopacity="0"
     inkscape:pagecheckerboard="0"
     inkscape:deskcolor="#505050"
     inkscape:document-units="px"
     inkscape:zoom="0.3515625"
     inkscape:cx="1920"
     inkscape:cy="540.44444"
     inkscape:window-width="1913"
     inkscape:window-height="996"
     inkscape:window-x="1920"
     inkscape:window-y="7"
     inkscape:window-maximized="1"
     inkscape:current-layer="layer1" /><defs
     id="defs1" /><g
     inkscape:label="Layer 1"
     inkscape:groupmode="layer"
     id="layer1"><rect
       style="fill:#000000;stroke-width:0.264583"
       id="rect1"
       width="508"
       height="285.75"
       x="0"
       y="0" /><rect
       style="fill:#000000;stroke-width:0.264583;fill-opacity:1"
       id="rect2"
       width="508"
       height="285.75"
       x="508"
       y="0" /><g
       style="fill:#808080;opacity:0.3"
       id="g19"
       transform="matrix(6.6371913,0,0,6.6371913,148.16959,37.039625)"><g
         id="g18"
         style="fill:#808080">
	<path
   d="M 30.543,5.74 26.465,1.705 C 24.66,-0.072 21.729,-0.084 19.92,1.685 l -4.525,4.414 c -1.812,1.768 -1.82,4.648 -0.02,6.424 l 2.586,-2.484 C 17.699,9.248 18.022,8.342 18.662,7.715 l 2.879,-2.807 c 0.912,-0.885 2.375,-0.881 3.275,0.01 l 2.449,2.42 c 0.9,0.891 0.896,2.326 -0.01,3.213 l -2.879,2.809 c -0.609,0.594 -1.609,0.92 -2.385,0.711 l -2.533,2.486 c 1.803,1.781 4.732,1.789 6.545,0.02 l 4.52,-4.41 c 1.817,-1.771 1.823,-4.648 0.02,-6.427 z"
   id="path1"
   style="fill:#808080" />
	<path
   d="m 13.975,21.894 c 0.215,0.773 -0.129,1.773 -0.752,2.381 l -2.689,2.627 C 9.612,27.802 8.12,27.797 7.202,26.89 L 4.704,24.429 C 3.788,23.523 3.794,22.05 4.716,21.154 l 2.691,-2.627 c 0.656,-0.637 1.598,-0.961 2.42,-0.689 l 2.594,-2.57 c -1.836,-1.811 -4.824,-1.82 -6.668,-0.02 l -4.363,4.26 c -1.846,1.803 -1.855,4.734 -0.02,6.549 l 4.154,4.107 c 1.834,1.809 4.82,1.818 6.668,0.018 l 4.363,-4.26 c 1.844,-1.805 1.852,-4.734 0.02,-6.547 z"
   id="path2"
   style="fill:#808080" />
	<path
   d="m 11.139,20.722 c 0.611,0.617 1.611,0.623 2.234,0.008 l 7.455,-7.416 c 0.621,-0.617 0.625,-1.615 0.008,-2.234 -0.613,-0.615 -1.611,-0.619 -2.23,-0.006 l -7.457,7.414 c -0.62,0.615 -0.624,1.613 -0.01,2.234 z"
   id="path3"
   style="fill:#808080" />
	<g
   id="g3"
   style="fill:#808080">
	</g>
	<g
   id="g4"
   style="fill:#808080">
	</g>
	<g
   id="g5"
   style="fill:#808080">
	</g>
	<g
   id="g6"
   style="fill:#808080">
	</g>
	<g
   id="g7"
   style="fill:#808080">
	</g>
	<g
   id="g8"
   style="fill:#808080">
	</g>
	<g
   id="g9"
   style="fill:#808080">
	</g>
	<g
   id="g10"
   style="fill:#808080">
	</g>
	<g
   id="g11"
   style="fill:#808080">
	</g>
	<g
   id="g12"
   style="fill:#808080">
	</g>
	<g
   id="g13"
   style="fill:#808080">
	</g>
	<g
   id="g14"
   style="fill:#808080">
	</g>
	<g
   id="g15"
   style="fill:#808080">
	</g>
	<g
   id="g16"
   style="fill:#808080">
	</g>
	<g
   id="g17"
   style="fill:#808080">
	</g>
</g></g><text
       xml:space="preserve"
       style="font-size:56.4444px;opacity:1;fill:#808080;fill-opacity:1;stroke-width:0.264583"
       x="90.371872"
       y="159.54926"
       id="text4"><tspan
         sodipodi:role="line"
         id="tspan4"
         style="font-style:normal;font-variant:normal;font-weight:900;font-stretch:normal;font-size:56.4444px;font-family:Roboto;-inkscape-font-specification:'Roboto Heavy';fill:#808080;stroke-width:0.264583"
         x="90.371872"
         y="159.54926">BLOQUEADO</tspan></text><g
       style="opacity:0.3;fill:#808080"
       id="g37"
       transform="matrix(6.6371913,0,0,6.6371913,656.1696,37.039625)"><g
         id="g36"
         style="fill:#808080">
	<path
   d="M 30.543,5.74 26.465,1.705 C 24.66,-0.072 21.729,-0.084 19.92,1.685 l -4.525,4.414 c -1.812,1.768 -1.82,4.648 -0.02,6.424 l 2.586,-2.484 C 17.699,9.248 18.022,8.342 18.662,7.715 l 2.879,-2.807 c 0.912,-0.885 2.375,-0.881 3.275,0.01 l 2.449,2.42 c 0.9,0.891 0.896,2.326 -0.01,3.213 l -2.879,2.809 c -0.609,0.594 -1.609,0.92 -2.385,0.711 l -2.533,2.486 c 1.803,1.781 4.732,1.789 6.545,0.02 l 4.52,-4.41 c 1.817,-1.771 1.823,-4.648 0.02,-6.427 z"
   id="path19"
   style="fill:#808080" />
	<path
   d="m 13.975,21.894 c 0.215,0.773 -0.129,1.773 -0.752,2.381 l -2.689,2.627 C 9.612,27.802 8.12,27.797 7.202,26.89 L 4.704,24.429 C 3.788,23.523 3.794,22.05 4.716,21.154 l 2.691,-2.627 c 0.656,-0.637 1.598,-0.961 2.42,-0.689 l 2.594,-2.57 c -1.836,-1.811 -4.824,-1.82 -6.668,-0.02 l -4.363,4.26 c -1.846,1.803 -1.855,4.734 -0.02,6.549 l 4.154,4.107 c 1.834,1.809 4.82,1.818 6.668,0.018 l 4.363,-4.26 c 1.844,-1.805 1.852,-4.734 0.02,-6.547 z"
   id="path20"
   style="fill:#808080" />
	<path
   d="m 11.139,20.722 c 0.611,0.617 1.611,0.623 2.234,0.008 l 7.455,-7.416 c 0.621,-0.617 0.625,-1.615 0.008,-2.234 -0.613,-0.615 -1.611,-0.619 -2.23,-0.006 l -7.457,7.414 c -0.62,0.615 -0.624,1.613 -0.01,2.234 z"
   id="path21"
   style="fill:#808080" />
	<g
   id="g21"
   style="fill:#808080">
	</g>
	<g
   id="g22"
   style="fill:#808080">
	</g>
	<g
   id="g23"
   style="fill:#808080">
	</g>
	<g
   id="g24"
   style="fill:#808080">
	</g>
	<g
   id="g25"
   style="fill:#808080">
	</g>
	<g
   id="g26"
   style="fill:#808080">
	</g>
	<g
   id="g27"
   style="fill:#808080">
	</g>
	<g
   id="g28"
   style="fill:#808080">
	</g>
	<g
   id="g29"
   style="fill:#808080">
	</g>
	<g
   id="g30"
   style="fill:#808080">
	</g>
	<g
   id="g31"
   style="fill:#808080">
	</g>
	<g
   id="g32"
   style="fill:#808080">
	</g>
	<g
   id="g33"
   style="fill:#808080">
	</g>
	<g
   id="g34"
   style="fill:#808080">
	</g>
	<g
   id="g35"
   style="fill:#808080">
	</g>
</g></g><text
       xml:space="preserve"
       style="font-size:56.4444px;opacity:1;fill:#808080;fill-opacity:1;stroke-width:0.264583"
       x="598.37189"
       y="159.54926"
       id="text5"><tspan
         sodipodi:role="line"
         id="tspan5"
         style="font-style:normal;font-variant:normal;font-weight:900;font-stretch:normal;font-size:56.4444px;font-family:Roboto;-inkscape-font-specification:'Roboto Heavy';fill:#808080;stroke-width:0.264583"
         x="598.37189"
         y="159.54926">BLOQUEADO</tspan></text></g></svg>
